<?xml version="1.0" ?><!DOCTYPE svg  PUBLIC '-//W3C//DTD SVG 1.1//EN'  'http://www.w3.org/Graphics/SVG/1.1/DTD/svg11.dtd'><svg height="652.000" viewBox="-18.000 -18.000 506.000 652.000" width="506.000" xmlns="http://www.w3.org/2000/svg"><line fill="none" stroke="none" stroke-linecap="round" stroke-width="2.0" x1="0.0" x2="0.0" y1="0.0" y2="0.0"/><polygon fill="none" fill-rule="evenodd" points="0.0,-0.0 0.0,-0.0 0.0,-0.0" stroke-linejoin="round"/><line fill="none" stroke="#000" stroke-linecap="round" stroke-width="7.0" x1="0.0" x2="0.0" y1="0.0" y2="0.0"/><line fill="none" stroke="#000" stroke-linecap="round" stroke-width="7.0" x1="0.0" x2="0.0" y1="0.0" y2="0.0"/><line fill="none" stroke="#000" stroke-linecap="round" stroke-width="7.0" x1="94.0" x2="94.0" y1="176.0" y2="176.0"/><line fill="none" stroke="#000" stroke-linecap="round" stroke-width="7.0" x1="0.0" x2="0.0" y1="352.0" y2="352.0"/><line fill="none" stroke="#000" stroke-linecap="round" stroke-width="7.0" x1="94.0" x2="94.0" y1="528.0" y2="528.0"/><line fill="none" stroke="#000" stroke-linecap="round" stroke-width="7.0" x1="188.0" x2="188.0" y1="88.0" y2="88.0"/><line fill="none" stroke="#000" stroke-linecap="round" stroke-width="7.0" x1="282.0" x2="282.0" y1="264.0" y2="264.0"/><line fill="none" stroke="#000" stroke-linecap="round" stroke-width="7.0" x1="188.0" x2="188.0" y1="440.0" y2="440.0"/><line fill="none" stroke="#000" stroke-linecap="round" stroke-width="7.0" x1="282.0" x2="282.0" y1="616.0" y2="616.0"/><line fill="none" stroke="#000" stroke-linecap="round" stroke-width="7.0" x1="376.0" x2="376.0" y1="0.0" y2="0.0"/><line fill="none" stroke="#000" stroke-linecap="round" stroke-width="7.0" x1="470.0" x2="470.0" y1="176.0" y2="176.0"/><line fill="none" stroke="#000" stroke-linecap="round" stroke-width="7.0" x1="376.0" x2="376.0" y1="352.0" y2="352.0"/><line fill="none" stroke="#000" stroke-linecap="round" stroke-width="7.0" x1="470.0" x2="470.0" y1="528.0" y2="528.0"/><line fill="none" stroke="#000" stroke-linecap="round" x1="0.0" x2="94.0" y1="0.0" y2="176.0"/><line fill="none" stroke="#000" stroke-linecap="round" x1="0.0" x2="0.0" y1="0.0" y2="352.0"/><line fill="none" stroke="#000" stroke-linecap="round" x1="0.0" x2="94.0" y1="0.0" y2="528.0"/><line fill="none" stroke="#000" stroke-linecap="round" x1="0.0" x2="188.0" y1="0.0" y2="440.0"/><line fill="none" stroke="#000" stroke-linecap="round" x1="0.0" x2="470.0" y1="0.0" y2="528.0"/><line fill="none" stroke="#646d96" stroke-linecap="round" x1="94.0" x2="0.0" y1="176.0" y2="352.0"/><line fill="none" stroke="#646d96" stroke-linecap="round" x1="94.0" x2="470.0" y1="176.0" y2="528.0"/><line fill="none" stroke="#e97bce" stroke-linecap="round" x1="0.0" x2="282.0" y1="352.0" y2="616.0"/><line fill="none" stroke="#e97bce" stroke-linecap="round" x1="0.0" x2="470.0" y1="352.0" y2="528.0"/><line fill="none" stroke="#0c8757" stroke-linecap="round" x1="94.0" x2="376.0" y1="528.0" y2="352.0"/><line fill="none" stroke="#251152" stroke-linecap="round" x1="188.0" x2="282.0" y1="88.0" y2="616.0"/><line fill="none" stroke="#1e41c1" stroke-linecap="round" x1="188.0" x2="282.0" y1="440.0" y2="616.0"/><line fill="none" stroke="none" stroke-linecap="round" stroke-width="2.0" x1="0.0" x2="0.0" y1="0.0" y2="0.0"/><line fill="none" stroke="none" stroke-linecap="round" stroke-width="2.0" x1="0.0" x2="0.0" y1="0.0" y2="0.0"/><polygon fill="none" fill-rule="evenodd" points="0.0,0.0 0.0,0.0 0.0,0.0" stroke-linejoin="round"/><line fill="none" stroke="none" stroke-linecap="round" stroke-width="2.0" x1="0.0" x2="0.0" y1="0.0" y2="0.0"/></svg>